<mxfile host="app.diagrams.net" modified="2023-04-24T07:19:56.389Z" agent="Mozilla/5.0 (Windows NT 10.0; Win64; x64) AppleWebKit/537.36 (KHTML, like Gecko) Chrome/112.0.0.0 Safari/537.36" etag="YV7biIDfHyxk7k1sL-tL" version="21.2.1" type="device" pages="2">
  <diagram id="y3ty3IF1qEvv7_HRoFi_" name="AdminPanel Frontend">
    <mxGraphModel dx="1647" dy="868" grid="1" gridSize="10" guides="1" tooltips="1" connect="1" arrows="1" fold="1" page="1" pageScale="1" pageWidth="2000" pageHeight="2000" math="0" shadow="0">
      <root>
        <mxCell id="0" />
        <mxCell id="1" parent="0" />
        <mxCell id="Lnm5FUQjWfvyAUHJbK82-27" style="edgeStyle=orthogonalEdgeStyle;rounded=0;orthogonalLoop=1;jettySize=auto;html=1;exitX=1;exitY=0.5;exitDx=0;exitDy=0;entryX=0;entryY=0.5;entryDx=0;entryDy=0;fontColor=#FFFFFF;" parent="1" source="TfjlJBafvdcLalEwBS8C-1" target="Lnm5FUQjWfvyAUHJbK82-26" edge="1">
          <mxGeometry relative="1" as="geometry" />
        </mxCell>
        <mxCell id="KYYLbXUBdnmt9hhDFzb0-1" value="" style="edgeStyle=orthogonalEdgeStyle;rounded=0;orthogonalLoop=1;jettySize=auto;html=1;" parent="1" source="TfjlJBafvdcLalEwBS8C-1" edge="1">
          <mxGeometry relative="1" as="geometry">
            <mxPoint x="200" y="240" as="targetPoint" />
          </mxGeometry>
        </mxCell>
        <mxCell id="TfjlJBafvdcLalEwBS8C-1" value="AdminLayout" style="rounded=0;whiteSpace=wrap;html=1;fillColor=#ffe6cc;strokeColor=#d79b00;" parent="1" vertex="1">
          <mxGeometry x="110" y="150" width="180" height="60" as="geometry" />
        </mxCell>
        <mxCell id="TfjlJBafvdcLalEwBS8C-8" value="AdminLayout" style="rounded=0;whiteSpace=wrap;html=1;fillColor=#ffe6cc;strokeColor=#d79b00;" parent="1" vertex="1">
          <mxGeometry x="110" y="330" width="180" height="60" as="geometry" />
        </mxCell>
        <mxCell id="Lnm5FUQjWfvyAUHJbK82-14" style="edgeStyle=orthogonalEdgeStyle;rounded=0;orthogonalLoop=1;jettySize=auto;html=1;exitX=0.5;exitY=1;exitDx=0;exitDy=0;fontColor=#FFFFFF;" parent="1" source="Lnm5FUQjWfvyAUHJbK82-3" target="TfjlJBafvdcLalEwBS8C-8" edge="1">
          <mxGeometry relative="1" as="geometry" />
        </mxCell>
        <mxCell id="Lnm5FUQjWfvyAUHJbK82-25" value="" style="edgeStyle=orthogonalEdgeStyle;rounded=0;orthogonalLoop=1;jettySize=auto;html=1;fontColor=#FFFFFF;" parent="1" source="Lnm5FUQjWfvyAUHJbK82-3" target="Lnm5FUQjWfvyAUHJbK82-23" edge="1">
          <mxGeometry relative="1" as="geometry" />
        </mxCell>
        <mxCell id="Lnm5FUQjWfvyAUHJbK82-3" value="ContentAdminMain" style="rounded=0;whiteSpace=wrap;html=1;fillColor=#000000;strokeColor=#d79b00;fontColor=#FFFFFF;" parent="1" vertex="1">
          <mxGeometry x="110" y="240" width="180" height="60" as="geometry" />
        </mxCell>
        <mxCell id="Lnm5FUQjWfvyAUHJbK82-16" style="edgeStyle=orthogonalEdgeStyle;rounded=0;orthogonalLoop=1;jettySize=auto;html=1;exitX=0.5;exitY=1;exitDx=0;exitDy=0;entryX=0.5;entryY=0;entryDx=0;entryDy=0;fontColor=#FFFFFF;" parent="1" source="Lnm5FUQjWfvyAUHJbK82-4" target="Lnm5FUQjWfvyAUHJbK82-5" edge="1">
          <mxGeometry relative="1" as="geometry" />
        </mxCell>
        <mxCell id="Lnm5FUQjWfvyAUHJbK82-4" value="SidebarAdmin" style="rounded=0;whiteSpace=wrap;html=1;fillColor=#000000;strokeColor=#d79b00;fontColor=#FFFFFF;" parent="1" vertex="1">
          <mxGeometry x="820" y="240" width="180" height="60" as="geometry" />
        </mxCell>
        <mxCell id="Lnm5FUQjWfvyAUHJbK82-17" style="edgeStyle=orthogonalEdgeStyle;rounded=0;orthogonalLoop=1;jettySize=auto;html=1;exitX=0.5;exitY=1;exitDx=0;exitDy=0;entryX=0.5;entryY=0;entryDx=0;entryDy=0;fontColor=#FFFFFF;" parent="1" source="Lnm5FUQjWfvyAUHJbK82-5" target="Lnm5FUQjWfvyAUHJbK82-6" edge="1">
          <mxGeometry relative="1" as="geometry" />
        </mxCell>
        <mxCell id="Lnm5FUQjWfvyAUHJbK82-5" value="Link admin\main" style="rounded=0;whiteSpace=wrap;html=1;fillColor=#0000FF;strokeColor=#d79b00;fontColor=#FFFFFF;" parent="1" vertex="1">
          <mxGeometry x="820" y="330" width="180" height="60" as="geometry" />
        </mxCell>
        <mxCell id="Lnm5FUQjWfvyAUHJbK82-18" value="" style="edgeStyle=orthogonalEdgeStyle;rounded=0;orthogonalLoop=1;jettySize=auto;html=1;fontColor=#FFFFFF;" parent="1" source="Lnm5FUQjWfvyAUHJbK82-6" target="Lnm5FUQjWfvyAUHJbK82-7" edge="1">
          <mxGeometry relative="1" as="geometry" />
        </mxCell>
        <mxCell id="Lnm5FUQjWfvyAUHJbK82-6" value="Link admin\menu" style="rounded=0;whiteSpace=wrap;html=1;fillColor=#0000FF;strokeColor=#d79b00;fontColor=#FFFFFF;" parent="1" vertex="1">
          <mxGeometry x="820" y="420" width="180" height="60" as="geometry" />
        </mxCell>
        <mxCell id="Lnm5FUQjWfvyAUHJbK82-20" value="" style="edgeStyle=orthogonalEdgeStyle;rounded=0;orthogonalLoop=1;jettySize=auto;html=1;fontColor=#FFFFFF;" parent="1" source="Lnm5FUQjWfvyAUHJbK82-7" target="Lnm5FUQjWfvyAUHJbK82-8" edge="1">
          <mxGeometry relative="1" as="geometry" />
        </mxCell>
        <mxCell id="Lnm5FUQjWfvyAUHJbK82-7" value="Link admin\catalog" style="rounded=0;whiteSpace=wrap;html=1;fillColor=#0000FF;strokeColor=#d79b00;fontColor=#FFFFFF;" parent="1" vertex="1">
          <mxGeometry x="820" y="510" width="180" height="60" as="geometry" />
        </mxCell>
        <mxCell id="Lnm5FUQjWfvyAUHJbK82-21" value="" style="edgeStyle=orthogonalEdgeStyle;rounded=0;orthogonalLoop=1;jettySize=auto;html=1;fontColor=#FFFFFF;" parent="1" source="Lnm5FUQjWfvyAUHJbK82-8" target="Lnm5FUQjWfvyAUHJbK82-9" edge="1">
          <mxGeometry relative="1" as="geometry" />
        </mxCell>
        <mxCell id="Lnm5FUQjWfvyAUHJbK82-8" value="Link admin\sections" style="rounded=0;whiteSpace=wrap;html=1;fillColor=#0000FF;strokeColor=#d79b00;fontColor=#FFFFFF;" parent="1" vertex="1">
          <mxGeometry x="820" y="600" width="180" height="60" as="geometry" />
        </mxCell>
        <mxCell id="Lnm5FUQjWfvyAUHJbK82-22" value="" style="edgeStyle=orthogonalEdgeStyle;rounded=0;orthogonalLoop=1;jettySize=auto;html=1;fontColor=#FFFFFF;" parent="1" source="Lnm5FUQjWfvyAUHJbK82-9" target="Lnm5FUQjWfvyAUHJbK82-10" edge="1">
          <mxGeometry relative="1" as="geometry" />
        </mxCell>
        <mxCell id="Lnm5FUQjWfvyAUHJbK82-9" value="Link admin\users" style="rounded=0;whiteSpace=wrap;html=1;fillColor=#0000FF;strokeColor=#d79b00;fontColor=#FFFFFF;" parent="1" vertex="1">
          <mxGeometry x="820" y="690" width="180" height="60" as="geometry" />
        </mxCell>
        <mxCell id="Lnm5FUQjWfvyAUHJbK82-10" value="Link admin\settings" style="rounded=0;whiteSpace=wrap;html=1;fillColor=#0000FF;strokeColor=#d79b00;fontColor=#FFFFFF;" parent="1" vertex="1">
          <mxGeometry x="820" y="780" width="180" height="60" as="geometry" />
        </mxCell>
        <mxCell id="Lnm5FUQjWfvyAUHJbK82-23" value="ContentAdminMain" style="rounded=0;whiteSpace=wrap;html=1;fillColor=#000000;strokeColor=#d79b00;fontColor=#FFFFFF;" parent="1" vertex="1">
          <mxGeometry x="360" y="240" width="180" height="60" as="geometry" />
        </mxCell>
        <mxCell id="Lnm5FUQjWfvyAUHJbK82-24" value="Text" style="text;html=1;align=center;verticalAlign=middle;resizable=0;points=[];autosize=1;strokeColor=none;fillColor=none;fontColor=#FFFFFF;" parent="1" vertex="1">
          <mxGeometry x="620" y="370" width="40" height="20" as="geometry" />
        </mxCell>
        <mxCell id="Lnm5FUQjWfvyAUHJbK82-28" value="" style="edgeStyle=orthogonalEdgeStyle;rounded=0;orthogonalLoop=1;jettySize=auto;html=1;fontColor=#FFFFFF;" parent="1" source="Lnm5FUQjWfvyAUHJbK82-26" edge="1">
          <mxGeometry relative="1" as="geometry">
            <mxPoint x="690" y="240" as="targetPoint" />
          </mxGeometry>
        </mxCell>
        <mxCell id="Lnm5FUQjWfvyAUHJbK82-26" value="AdminLayout" style="rounded=0;whiteSpace=wrap;html=1;fillColor=#ffe6cc;strokeColor=#d79b00;" parent="1" vertex="1">
          <mxGeometry x="600" y="150" width="180" height="60" as="geometry" />
        </mxCell>
        <mxCell id="B54bf4WMhzYb4HVWYB5m-1" value="ContentAdminMenu" style="rounded=0;whiteSpace=wrap;html=1;fillColor=#FFFFFF;strokeColor=#000000;fontColor=#000000;fillStyle=auto;dashed=1;" parent="1" vertex="1">
          <mxGeometry x="360" y="330" width="180" height="60" as="geometry" />
        </mxCell>
        <mxCell id="B54bf4WMhzYb4HVWYB5m-2" value="ContentAdminCatalog" style="rounded=0;whiteSpace=wrap;html=1;fillColor=#FFFFFF;strokeColor=#000000;fontColor=#000000;fillStyle=auto;dashed=1;" parent="1" vertex="1">
          <mxGeometry x="360" y="420" width="180" height="60" as="geometry" />
        </mxCell>
        <mxCell id="B54bf4WMhzYb4HVWYB5m-3" value="ContentAdminSections" style="rounded=0;whiteSpace=wrap;html=1;fillColor=#FFFFFF;strokeColor=#000000;fontColor=#000000;fillStyle=auto;dashed=1;" parent="1" vertex="1">
          <mxGeometry x="360" y="510" width="180" height="60" as="geometry" />
        </mxCell>
        <mxCell id="B54bf4WMhzYb4HVWYB5m-4" value="ContentAdminBuyers" style="rounded=0;whiteSpace=wrap;html=1;fillColor=#FFFFFF;strokeColor=#000000;fontColor=#000000;fillStyle=auto;dashed=1;" parent="1" vertex="1">
          <mxGeometry x="360" y="600" width="180" height="60" as="geometry" />
        </mxCell>
        <mxCell id="B54bf4WMhzYb4HVWYB5m-5" value="ContentAdminSettings" style="rounded=0;whiteSpace=wrap;html=1;fillColor=#FFFFFF;strokeColor=#000000;fontColor=#000000;fillStyle=auto;dashed=1;" parent="1" vertex="1">
          <mxGeometry x="360" y="690" width="180" height="60" as="geometry" />
        </mxCell>
        <mxCell id="lKyX-1WFtgt2u2VE1WIJ-3" style="edgeStyle=orthogonalEdgeStyle;rounded=0;orthogonalLoop=1;jettySize=auto;html=1;exitX=1;exitY=0.5;exitDx=0;exitDy=0;entryX=0;entryY=0.5;entryDx=0;entryDy=0;fontColor=#000000;" parent="1" source="lKyX-1WFtgt2u2VE1WIJ-1" target="Lnm5FUQjWfvyAUHJbK82-4" edge="1">
          <mxGeometry relative="1" as="geometry" />
        </mxCell>
        <mxCell id="lKyX-1WFtgt2u2VE1WIJ-5" style="edgeStyle=orthogonalEdgeStyle;rounded=0;orthogonalLoop=1;jettySize=auto;html=1;exitX=0.5;exitY=1;exitDx=0;exitDy=0;entryX=0.5;entryY=0;entryDx=0;entryDy=0;fontColor=#000000;" parent="1" source="lKyX-1WFtgt2u2VE1WIJ-1" target="lKyX-1WFtgt2u2VE1WIJ-4" edge="1">
          <mxGeometry relative="1" as="geometry" />
        </mxCell>
        <mxCell id="lKyX-1WFtgt2u2VE1WIJ-1" value="SidebarAdmin" style="rounded=0;whiteSpace=wrap;html=1;fillColor=#000000;strokeColor=#d79b00;fontColor=#FFFFFF;" parent="1" vertex="1">
          <mxGeometry x="600" y="240" width="180" height="60" as="geometry" />
        </mxCell>
        <mxCell id="lKyX-1WFtgt2u2VE1WIJ-4" value="HeaderAdmin" style="rounded=0;whiteSpace=wrap;html=1;fillColor=#000000;strokeColor=#d79b00;fontColor=#FFFFFF;" parent="1" vertex="1">
          <mxGeometry x="600" y="330" width="180" height="60" as="geometry" />
        </mxCell>
      </root>
    </mxGraphModel>
  </diagram>
  <diagram id="WG7RHVSNt35h0nU3T_CJ" name="DB">
    <mxGraphModel dx="766" dy="404" grid="1" gridSize="10" guides="1" tooltips="1" connect="1" arrows="1" fold="1" page="1" pageScale="1" pageWidth="2000" pageHeight="2000" math="0" shadow="0">
      <root>
        <mxCell id="PJwwnjKNIrOmF94pEZzt-0" />
        <mxCell id="PJwwnjKNIrOmF94pEZzt-1" parent="PJwwnjKNIrOmF94pEZzt-0" />
        <mxCell id="mLEfpGkEj4Xu0XnnnVGU-7" value="" style="edgeStyle=entityRelationEdgeStyle;fontSize=12;html=1;endArrow=ERoneToMany;rounded=0;exitX=0.998;exitY=0.565;exitDx=0;exitDy=0;exitPerimeter=0;entryX=-0.008;entryY=0.788;entryDx=0;entryDy=0;entryPerimeter=0;" parent="PJwwnjKNIrOmF94pEZzt-1" source="RsmHLLd07lTIPKuzx6u--11" target="mLEfpGkEj4Xu0XnnnVGU-6" edge="1">
          <mxGeometry width="100" height="100" relative="1" as="geometry">
            <mxPoint x="900" y="597" as="sourcePoint" />
            <mxPoint x="980" y="640" as="targetPoint" />
          </mxGeometry>
        </mxCell>
        <mxCell id="PJwwnjKNIrOmF94pEZzt-2" value="enum UserRole" style="swimlane;fontStyle=0;childLayout=stackLayout;horizontal=1;startSize=26;fillColor=#e0e0e0;horizontalStack=0;resizeParent=1;resizeParentMax=0;resizeLast=0;collapsible=1;marginBottom=0;swimlaneFillColor=#ffffff;align=center;fontSize=14;strokeColor=#D79B00;" parent="PJwwnjKNIrOmF94pEZzt-1" vertex="1">
          <mxGeometry x="250" y="510" width="140" height="78" as="geometry">
            <mxRectangle x="540" y="250" width="140" height="26" as="alternateBounds" />
          </mxGeometry>
        </mxCell>
        <mxCell id="PJwwnjKNIrOmF94pEZzt-4" value="ADMIN=&quot;admin&quot;" style="text;strokeColor=none;fillColor=none;spacingLeft=4;spacingRight=4;overflow=hidden;rotatable=0;points=[[0,0.5],[1,0.5]];portConstraint=eastwest;fontSize=12;" parent="PJwwnjKNIrOmF94pEZzt-2" vertex="1">
          <mxGeometry y="26" width="140" height="26" as="geometry" />
        </mxCell>
        <mxCell id="PJwwnjKNIrOmF94pEZzt-5" value="USER=&quot;user&quot;" style="text;strokeColor=none;fillColor=none;spacingLeft=4;spacingRight=4;overflow=hidden;rotatable=0;points=[[0,0.5],[1,0.5]];portConstraint=eastwest;fontSize=12;" parent="PJwwnjKNIrOmF94pEZzt-2" vertex="1">
          <mxGeometry y="52" width="140" height="26" as="geometry" />
        </mxCell>
        <mxCell id="PJwwnjKNIrOmF94pEZzt-6" value="UserEntity" style="swimlane;childLayout=stackLayout;horizontal=1;startSize=30;horizontalStack=0;fillColor=#008cff;fontColor=#FFFFFF;rounded=1;fontSize=14;fontStyle=0;strokeWidth=2;resizeParent=0;resizeLast=1;shadow=0;dashed=0;align=center;" parent="PJwwnjKNIrOmF94pEZzt-1" vertex="1">
          <mxGeometry x="30" y="510" width="160" height="120" as="geometry" />
        </mxCell>
        <mxCell id="PJwwnjKNIrOmF94pEZzt-7" value="id: number&#xa;email: string&#xa;password: string&#xa;name: string&#xa;role: UserRole" style="align=left;strokeColor=none;fillColor=none;spacingLeft=4;fontSize=12;verticalAlign=top;resizable=0;rotatable=0;part=1;" parent="PJwwnjKNIrOmF94pEZzt-6" vertex="1">
          <mxGeometry y="30" width="160" height="90" as="geometry" />
        </mxCell>
        <mxCell id="RsmHLLd07lTIPKuzx6u--4" value="MENUS" style="text;html=1;align=center;verticalAlign=middle;resizable=0;points=[];autosize=1;strokeColor=none;fillColor=none;fontSize=22;fontStyle=1" parent="PJwwnjKNIrOmF94pEZzt-1" vertex="1">
          <mxGeometry x="760" y="440" width="100" height="40" as="geometry" />
        </mxCell>
        <mxCell id="RsmHLLd07lTIPKuzx6u--7" value="MenuEntity" style="swimlane;childLayout=stackLayout;horizontal=1;startSize=30;horizontalStack=0;fillColor=#008cff;fontColor=#FFFFFF;rounded=1;fontSize=14;fontStyle=0;strokeWidth=2;resizeParent=0;resizeLast=1;shadow=0;dashed=0;align=center;" parent="PJwwnjKNIrOmF94pEZzt-1" vertex="1">
          <mxGeometry x="480" y="510" width="160" height="90" as="geometry" />
        </mxCell>
        <mxCell id="RsmHLLd07lTIPKuzx6u--8" value="id: number&#xa;name: string&#xa;item: MenuItem[]" style="align=left;strokeColor=none;fillColor=none;spacingLeft=4;fontSize=12;verticalAlign=top;resizable=0;rotatable=0;part=1;" parent="RsmHLLd07lTIPKuzx6u--7" vertex="1">
          <mxGeometry y="30" width="160" height="60" as="geometry" />
        </mxCell>
        <mxCell id="RsmHLLd07lTIPKuzx6u--13" value="" style="edgeStyle=entityRelationEdgeStyle;fontSize=12;html=1;endArrow=ERoneToMany;rounded=0;entryX=-0.002;entryY=0.801;entryDx=0;entryDy=0;entryPerimeter=0;exitX=1;exitY=0.75;exitDx=0;exitDy=0;" parent="PJwwnjKNIrOmF94pEZzt-1" source="RsmHLLd07lTIPKuzx6u--8" target="RsmHLLd07lTIPKuzx6u--11" edge="1">
          <mxGeometry width="100" height="100" relative="1" as="geometry">
            <mxPoint x="640" y="680" as="sourcePoint" />
            <mxPoint x="720" y="607" as="targetPoint" />
          </mxGeometry>
        </mxCell>
        <mxCell id="RsmHLLd07lTIPKuzx6u--14" value="USERS" style="text;html=1;align=center;verticalAlign=middle;resizable=0;points=[];autosize=1;strokeColor=none;fillColor=none;fontSize=22;fontStyle=1" parent="PJwwnjKNIrOmF94pEZzt-1" vertex="1">
          <mxGeometry x="160" y="460" width="100" height="40" as="geometry" />
        </mxCell>
        <mxCell id="RsmHLLd07lTIPKuzx6u--16" value="SECTIONS" style="text;html=1;align=center;verticalAlign=middle;resizable=0;points=[];autosize=1;strokeColor=none;fillColor=none;fontSize=22;fontStyle=1" parent="PJwwnjKNIrOmF94pEZzt-1" vertex="1">
          <mxGeometry x="1500" y="450" width="140" height="40" as="geometry" />
        </mxCell>
        <mxCell id="RsmHLLd07lTIPKuzx6u--18" value="ElementEntity" style="swimlane;childLayout=stackLayout;horizontal=1;startSize=30;horizontalStack=0;fillColor=#008cff;fontColor=#FFFFFF;rounded=1;fontSize=14;fontStyle=0;strokeWidth=2;resizeParent=0;resizeLast=1;shadow=0;dashed=0;align=center;" parent="PJwwnjKNIrOmF94pEZzt-1" vertex="1">
          <mxGeometry x="1500" y="600" width="180" height="140" as="geometry" />
        </mxCell>
        <mxCell id="RsmHLLd07lTIPKuzx6u--19" value="id: number&#xa;name: string&#xa;slug: string&#xa;text_elements: TextSection[]&#xa;img_elements: ImgSection[]&#xa;section_id: number&#xa;product: ProductEntity" style="align=left;strokeColor=none;fillColor=none;spacingLeft=4;fontSize=12;verticalAlign=top;resizable=0;rotatable=0;part=1;" parent="RsmHLLd07lTIPKuzx6u--18" vertex="1">
          <mxGeometry y="30" width="180" height="110" as="geometry" />
        </mxCell>
        <mxCell id="RsmHLLd07lTIPKuzx6u--20" value="TextElementEntity" style="swimlane;childLayout=stackLayout;horizontal=1;startSize=30;horizontalStack=0;fillColor=#008cff;fontColor=#FFFFFF;rounded=1;fontSize=14;fontStyle=0;strokeWidth=2;resizeParent=0;resizeLast=1;shadow=0;dashed=0;align=center;" parent="PJwwnjKNIrOmF94pEZzt-1" vertex="1">
          <mxGeometry x="1800" y="520" width="160" height="120" as="geometry" />
        </mxCell>
        <mxCell id="RsmHLLd07lTIPKuzx6u--21" value="id: number&#xa;name: string&#xa;slug: string&#xa;text: string&#xa;element_id: number" style="align=left;strokeColor=none;fillColor=none;spacingLeft=4;fontSize=12;verticalAlign=top;resizable=0;rotatable=0;part=1;" parent="RsmHLLd07lTIPKuzx6u--20" vertex="1">
          <mxGeometry y="30" width="160" height="90" as="geometry" />
        </mxCell>
        <mxCell id="mLEfpGkEj4Xu0XnnnVGU-0" value="ImgElementEntity" style="swimlane;childLayout=stackLayout;horizontal=1;startSize=30;horizontalStack=0;fillColor=#008cff;fontColor=#FFFFFF;rounded=1;fontSize=14;fontStyle=0;strokeWidth=2;resizeParent=0;resizeLast=1;shadow=0;dashed=0;align=center;" parent="PJwwnjKNIrOmF94pEZzt-1" vertex="1">
          <mxGeometry x="1800" y="670" width="160" height="120" as="geometry" />
        </mxCell>
        <mxCell id="mLEfpGkEj4Xu0XnnnVGU-1" value="id: number&#xa;name: string&#xa;slug: string&#xa;filename: string&#xa;element_id: number" style="align=left;strokeColor=none;fillColor=none;spacingLeft=4;fontSize=12;verticalAlign=top;resizable=0;rotatable=0;part=1;" parent="mLEfpGkEj4Xu0XnnnVGU-0" vertex="1">
          <mxGeometry y="30" width="160" height="90" as="geometry" />
        </mxCell>
        <mxCell id="mLEfpGkEj4Xu0XnnnVGU-2" value="" style="edgeStyle=entityRelationEdgeStyle;fontSize=12;html=1;endArrow=ERoneToMany;rounded=0;entryX=0;entryY=0.75;entryDx=0;entryDy=0;exitX=1;exitY=0.572;exitDx=0;exitDy=0;exitPerimeter=0;" parent="PJwwnjKNIrOmF94pEZzt-1" source="RsmHLLd07lTIPKuzx6u--19" target="RsmHLLd07lTIPKuzx6u--21" edge="1">
          <mxGeometry width="100" height="100" relative="1" as="geometry">
            <mxPoint x="1680" y="680" as="sourcePoint" />
            <mxPoint x="1759.6799999999998" y="607.0899999999999" as="targetPoint" />
          </mxGeometry>
        </mxCell>
        <mxCell id="mLEfpGkEj4Xu0XnnnVGU-3" value="" style="edgeStyle=entityRelationEdgeStyle;fontSize=12;html=1;endArrow=ERoneToMany;rounded=0;entryX=0;entryY=0.75;entryDx=0;entryDy=0;" parent="PJwwnjKNIrOmF94pEZzt-1" target="mLEfpGkEj4Xu0XnnnVGU-1" edge="1">
          <mxGeometry width="100" height="100" relative="1" as="geometry">
            <mxPoint x="1680" y="700" as="sourcePoint" />
            <mxPoint x="1810" y="627.5" as="targetPoint" />
          </mxGeometry>
        </mxCell>
        <mxCell id="mLEfpGkEj4Xu0XnnnVGU-5" value="SubMenuItemEntity" style="swimlane;childLayout=stackLayout;horizontal=1;startSize=30;horizontalStack=0;fillColor=#008cff;fontColor=#FFFFFF;rounded=1;fontSize=14;fontStyle=0;strokeWidth=2;resizeParent=0;resizeLast=1;shadow=0;dashed=0;align=center;" parent="PJwwnjKNIrOmF94pEZzt-1" vertex="1">
          <mxGeometry x="980" y="510" width="160" height="120" as="geometry" />
        </mxCell>
        <mxCell id="mLEfpGkEj4Xu0XnnnVGU-6" value="id: number&#xa;serial_number: number&#xa;name: string&#xa;link: string&#xa;menu_item_id: number" style="align=left;strokeColor=none;fillColor=none;spacingLeft=4;fontSize=12;verticalAlign=top;resizable=0;rotatable=0;part=1;" parent="mLEfpGkEj4Xu0XnnnVGU-5" vertex="1">
          <mxGeometry y="30" width="160" height="90" as="geometry" />
        </mxCell>
        <mxCell id="RsmHLLd07lTIPKuzx6u--10" value="MenuItemEntity" style="swimlane;childLayout=stackLayout;horizontal=1;startSize=30;horizontalStack=0;fillColor=#008cff;fontColor=#FFFFFF;rounded=1;fontSize=14;fontStyle=0;strokeWidth=2;resizeParent=0;resizeLast=1;shadow=0;dashed=0;align=center;" parent="PJwwnjKNIrOmF94pEZzt-1" vertex="1">
          <mxGeometry x="720" y="510" width="190" height="130" as="geometry" />
        </mxCell>
        <mxCell id="RsmHLLd07lTIPKuzx6u--11" value="id: number&#xa;serial_number: number&#xa;name: string&#xa;submenu_items: SubMenuItem[]&#xa;link: string&#xa;menu_id: number" style="align=left;strokeColor=none;fillColor=none;spacingLeft=4;fontSize=12;verticalAlign=top;resizable=0;rotatable=0;part=1;" parent="RsmHLLd07lTIPKuzx6u--10" vertex="1">
          <mxGeometry y="30" width="190" height="100" as="geometry" />
        </mxCell>
        <mxCell id="mZnA2GYZkuLBao74AhR1-0" value="SectionEntity" style="swimlane;childLayout=stackLayout;horizontal=1;startSize=30;horizontalStack=0;fillColor=#008cff;fontColor=#FFFFFF;rounded=1;fontSize=14;fontStyle=0;strokeWidth=2;resizeParent=0;resizeLast=1;shadow=0;dashed=0;align=center;" parent="PJwwnjKNIrOmF94pEZzt-1" vertex="1">
          <mxGeometry x="1240" y="570" width="150" height="130" as="geometry" />
        </mxCell>
        <mxCell id="mZnA2GYZkuLBao74AhR1-1" value="id: number&#xa;name: string&#xa;slug: string&#xa;elements: Element[]" style="align=left;strokeColor=none;fillColor=none;spacingLeft=4;fontSize=12;verticalAlign=top;resizable=0;rotatable=0;part=1;" parent="mZnA2GYZkuLBao74AhR1-0" vertex="1">
          <mxGeometry y="30" width="150" height="100" as="geometry" />
        </mxCell>
        <mxCell id="mZnA2GYZkuLBao74AhR1-2" value="" style="edgeStyle=entityRelationEdgeStyle;fontSize=12;html=1;endArrow=ERoneToMany;rounded=0;entryX=-0.007;entryY=0.777;entryDx=0;entryDy=0;exitX=1.002;exitY=0.57;exitDx=0;exitDy=0;exitPerimeter=0;entryPerimeter=0;" parent="PJwwnjKNIrOmF94pEZzt-1" source="mZnA2GYZkuLBao74AhR1-1" target="RsmHLLd07lTIPKuzx6u--19" edge="1">
          <mxGeometry width="100" height="100" relative="1" as="geometry">
            <mxPoint x="1390" y="660" as="sourcePoint" />
            <mxPoint x="1540" y="800" as="targetPoint" />
          </mxGeometry>
        </mxCell>
        <mxCell id="aV_MLQnCXW4QnTgUyW_h-1" value="ProductEntity" style="swimlane;childLayout=stackLayout;horizontal=1;startSize=30;horizontalStack=0;fillColor=#008cff;fontColor=#FFFFFF;rounded=1;fontSize=14;fontStyle=0;strokeWidth=2;resizeParent=0;resizeLast=1;shadow=0;dashed=0;align=center;" parent="PJwwnjKNIrOmF94pEZzt-1" vertex="1">
          <mxGeometry x="60" y="950" width="160" height="230" as="geometry" />
        </mxCell>
        <mxCell id="aV_MLQnCXW4QnTgUyW_h-2" value="id: number&#xa;name: string&#xa;slug: string&#xa;price: number&#xa;//Кол.-во ед. на складе&#xa;count_in_stock: number &#xa;//Артикул&#xa;vendor_code: string &#xa;brand: BrandEntity&#xa;catalog: CatalogEntity&#xa;filters: ProductFilterEntity[]&#xa;main_image: string&#xa;filenames_images: string[]&#xa;" style="align=left;strokeColor=none;fillColor=none;spacingLeft=4;fontSize=12;verticalAlign=top;resizable=0;rotatable=0;part=1;" parent="aV_MLQnCXW4QnTgUyW_h-1" vertex="1">
          <mxGeometry y="30" width="160" height="200" as="geometry" />
        </mxCell>
        <mxCell id="aV_MLQnCXW4QnTgUyW_h-3" value="BrandEntity" style="swimlane;childLayout=stackLayout;horizontal=1;startSize=30;horizontalStack=0;fillColor=#008cff;fontColor=#FFFFFF;rounded=1;fontSize=14;fontStyle=0;strokeWidth=2;resizeParent=0;resizeLast=1;shadow=0;dashed=0;align=center;" parent="PJwwnjKNIrOmF94pEZzt-1" vertex="1">
          <mxGeometry x="330" y="840" width="160" height="100" as="geometry" />
        </mxCell>
        <mxCell id="aV_MLQnCXW4QnTgUyW_h-4" value="id: number&#xa;name: string&#xa;slug: string&#xa;product: ProductEntity[]" style="align=left;strokeColor=none;fillColor=none;spacingLeft=4;fontSize=12;verticalAlign=top;resizable=0;rotatable=0;part=1;" parent="aV_MLQnCXW4QnTgUyW_h-3" vertex="1">
          <mxGeometry y="30" width="160" height="70" as="geometry" />
        </mxCell>
        <mxCell id="aV_MLQnCXW4QnTgUyW_h-5" value="CatalogEntity" style="swimlane;childLayout=stackLayout;horizontal=1;startSize=30;horizontalStack=0;fillColor=#008cff;fontColor=#FFFFFF;rounded=1;fontSize=14;fontStyle=0;strokeWidth=2;resizeParent=0;resizeLast=1;shadow=0;dashed=0;align=center;" parent="PJwwnjKNIrOmF94pEZzt-1" vertex="1">
          <mxGeometry x="330" y="970" width="160" height="160" as="geometry" />
        </mxCell>
        <mxCell id="aV_MLQnCXW4QnTgUyW_h-6" value="id: number&#xa;name: string&#xa;slug: string&#xa;serial_number: number&#xa;children: CatalogEntity[] &#xa;parent: CatalogEntity &#xa;product: ProductEntity[]" style="align=left;strokeColor=none;fillColor=none;spacingLeft=4;fontSize=12;verticalAlign=top;resizable=0;rotatable=0;part=1;" parent="aV_MLQnCXW4QnTgUyW_h-5" vertex="1">
          <mxGeometry y="30" width="160" height="130" as="geometry" />
        </mxCell>
        <mxCell id="aV_MLQnCXW4QnTgUyW_h-7" value="ProductFilterEntity" style="swimlane;childLayout=stackLayout;horizontal=1;startSize=30;horizontalStack=0;fillColor=#008cff;fontColor=#FFFFFF;rounded=1;fontSize=14;fontStyle=0;strokeWidth=2;resizeParent=0;resizeLast=1;shadow=0;dashed=0;align=center;" parent="PJwwnjKNIrOmF94pEZzt-1" vertex="1">
          <mxGeometry x="330" y="1160" width="160" height="120" as="geometry">
            <mxRectangle x="330" y="1160" width="150" height="30" as="alternateBounds" />
          </mxGeometry>
        </mxCell>
        <mxCell id="aV_MLQnCXW4QnTgUyW_h-8" value="id: number&#xa;name: string&#xa;slug: string&#xa;product: ProductEntity&#xa;value: string" style="align=left;strokeColor=none;fillColor=none;spacingLeft=4;fontSize=12;verticalAlign=top;resizable=0;rotatable=0;part=1;" parent="aV_MLQnCXW4QnTgUyW_h-7" vertex="1">
          <mxGeometry y="30" width="160" height="90" as="geometry" />
        </mxCell>
        <mxCell id="aV_MLQnCXW4QnTgUyW_h-9" value="PRODUCT" style="text;html=1;align=center;verticalAlign=middle;resizable=0;points=[];autosize=1;strokeColor=none;fillColor=none;fontSize=22;fontStyle=1" parent="PJwwnjKNIrOmF94pEZzt-1" vertex="1">
          <mxGeometry x="180" y="790" width="130" height="40" as="geometry" />
        </mxCell>
        <mxCell id="aV_MLQnCXW4QnTgUyW_h-10" value="FILTER" style="text;html=1;align=center;verticalAlign=middle;resizable=0;points=[];autosize=1;strokeColor=none;fillColor=none;fontSize=22;fontStyle=1" parent="PJwwnjKNIrOmF94pEZzt-1" vertex="1">
          <mxGeometry x="810" y="790" width="100" height="40" as="geometry" />
        </mxCell>
        <mxCell id="aV_MLQnCXW4QnTgUyW_h-11" value="FilterEntity" style="swimlane;childLayout=stackLayout;horizontal=1;startSize=30;horizontalStack=0;fillColor=#008cff;fontColor=#FFFFFF;rounded=1;fontSize=14;fontStyle=0;strokeWidth=2;resizeParent=0;resizeLast=1;shadow=0;dashed=0;align=center;" parent="PJwwnjKNIrOmF94pEZzt-1" vertex="1">
          <mxGeometry x="620" y="840" width="200" height="100" as="geometry" />
        </mxCell>
        <mxCell id="aV_MLQnCXW4QnTgUyW_h-12" value="id: number&#xa;name: string&#xa;slug: string&#xa;elements: FilterElementEntity[]" style="align=left;strokeColor=none;fillColor=none;spacingLeft=4;fontSize=12;verticalAlign=top;resizable=0;rotatable=0;part=1;" parent="aV_MLQnCXW4QnTgUyW_h-11" vertex="1">
          <mxGeometry y="30" width="200" height="70" as="geometry" />
        </mxCell>
        <mxCell id="aV_MLQnCXW4QnTgUyW_h-13" value="FilterElementEntity" style="swimlane;childLayout=stackLayout;horizontal=1;startSize=30;horizontalStack=0;fillColor=#008cff;fontColor=#FFFFFF;rounded=1;fontSize=14;fontStyle=0;strokeWidth=2;resizeParent=0;resizeLast=1;shadow=0;dashed=0;align=center;" parent="PJwwnjKNIrOmF94pEZzt-1" vertex="1">
          <mxGeometry x="910" y="930" width="180" height="120" as="geometry" />
        </mxCell>
        <mxCell id="aV_MLQnCXW4QnTgUyW_h-14" value="id: number&#xa;name: string&#xa;slug: string&#xa;filter_item: FilterEntity&#xa;values: FilterValueEntity[]" style="align=left;strokeColor=none;fillColor=none;spacingLeft=4;fontSize=12;verticalAlign=top;resizable=0;rotatable=0;part=1;" parent="aV_MLQnCXW4QnTgUyW_h-13" vertex="1">
          <mxGeometry y="30" width="180" height="90" as="geometry" />
        </mxCell>
        <mxCell id="aV_MLQnCXW4QnTgUyW_h-16" value="FilterValueEntity" style="swimlane;childLayout=stackLayout;horizontal=1;startSize=30;horizontalStack=0;fillColor=#008cff;fontColor=#FFFFFF;rounded=1;fontSize=14;fontStyle=0;strokeWidth=2;resizeParent=0;resizeLast=1;shadow=0;dashed=0;align=center;" parent="PJwwnjKNIrOmF94pEZzt-1" vertex="1">
          <mxGeometry x="620" y="1020" width="200" height="120" as="geometry" />
        </mxCell>
        <mxCell id="aV_MLQnCXW4QnTgUyW_h-17" value="id: number&#xa;name: string&#xa;slug: string&#xa;value: string&#xa;filter_element: FilterElementEntity" style="align=left;strokeColor=none;fillColor=none;spacingLeft=4;fontSize=12;verticalAlign=top;resizable=0;rotatable=0;part=1;" parent="aV_MLQnCXW4QnTgUyW_h-16" vertex="1">
          <mxGeometry y="30" width="200" height="90" as="geometry" />
        </mxCell>
        <mxCell id="aV_MLQnCXW4QnTgUyW_h-18" value="" style="edgeStyle=entityRelationEdgeStyle;fontSize=12;html=1;endArrow=ERoneToMany;rounded=0;entryX=1.001;entryY=0.629;entryDx=0;entryDy=0;entryPerimeter=0;exitX=-0.005;exitY=0.806;exitDx=0;exitDy=0;exitPerimeter=0;" parent="PJwwnjKNIrOmF94pEZzt-1" source="aV_MLQnCXW4QnTgUyW_h-4" target="aV_MLQnCXW4QnTgUyW_h-2" edge="1">
          <mxGeometry width="100" height="100" relative="1" as="geometry">
            <mxPoint x="190" y="877.45" as="sourcePoint" />
            <mxPoint x="269.6199999999999" y="912.5500000000002" as="targetPoint" />
          </mxGeometry>
        </mxCell>
        <mxCell id="aV_MLQnCXW4QnTgUyW_h-19" value="" style="edgeStyle=entityRelationEdgeStyle;fontSize=12;html=1;endArrow=ERoneToMany;rounded=0;entryX=1.001;entryY=0.708;entryDx=0;entryDy=0;entryPerimeter=0;exitX=0.001;exitY=0.763;exitDx=0;exitDy=0;exitPerimeter=0;" parent="PJwwnjKNIrOmF94pEZzt-1" source="aV_MLQnCXW4QnTgUyW_h-6" target="aV_MLQnCXW4QnTgUyW_h-2" edge="1">
          <mxGeometry width="100" height="100" relative="1" as="geometry">
            <mxPoint x="339.20000000000005" y="936.4200000000001" as="sourcePoint" />
            <mxPoint x="230.15999999999985" y="1115.8" as="targetPoint" />
          </mxGeometry>
        </mxCell>
        <mxCell id="aV_MLQnCXW4QnTgUyW_h-20" value="" style="edgeStyle=entityRelationEdgeStyle;fontSize=12;html=1;endArrow=ERoneToMany;rounded=0;entryX=-0.004;entryY=0.638;entryDx=0;entryDy=0;entryPerimeter=0;exitX=1.004;exitY=0.773;exitDx=0;exitDy=0;exitPerimeter=0;" parent="PJwwnjKNIrOmF94pEZzt-1" source="aV_MLQnCXW4QnTgUyW_h-2" target="aV_MLQnCXW4QnTgUyW_h-8" edge="1">
          <mxGeometry width="100" height="100" relative="1" as="geometry">
            <mxPoint x="730" y="1060" as="sourcePoint" />
            <mxPoint x="620.9599999999998" y="1239.3799999999999" as="targetPoint" />
          </mxGeometry>
        </mxCell>
        <mxCell id="aV_MLQnCXW4QnTgUyW_h-21" value="" style="edgeStyle=entityRelationEdgeStyle;fontSize=12;html=1;endArrow=ERoneToMany;rounded=0;entryX=-0.002;entryY=0.626;entryDx=0;entryDy=0;entryPerimeter=0;exitX=1.006;exitY=0.816;exitDx=0;exitDy=0;exitPerimeter=0;" parent="PJwwnjKNIrOmF94pEZzt-1" source="aV_MLQnCXW4QnTgUyW_h-12" target="aV_MLQnCXW4QnTgUyW_h-14" edge="1">
          <mxGeometry width="100" height="100" relative="1" as="geometry">
            <mxPoint x="819.9999999999999" y="970.0000000000001" as="sourcePoint" />
            <mxPoint x="928.7200000000001" y="1052.8200000000002" as="targetPoint" />
          </mxGeometry>
        </mxCell>
        <mxCell id="aV_MLQnCXW4QnTgUyW_h-22" value="" style="edgeStyle=entityRelationEdgeStyle;fontSize=12;html=1;endArrow=ERoneToMany;rounded=0;entryX=1;entryY=0.75;entryDx=0;entryDy=0;exitX=0.002;exitY=0.786;exitDx=0;exitDy=0;exitPerimeter=0;" parent="PJwwnjKNIrOmF94pEZzt-1" source="aV_MLQnCXW4QnTgUyW_h-14" target="aV_MLQnCXW4QnTgUyW_h-17" edge="1">
          <mxGeometry width="100" height="100" relative="1" as="geometry">
            <mxPoint x="910" y="1080" as="sourcePoint" />
            <mxPoint x="998.4399999999998" y="1169.44" as="targetPoint" />
          </mxGeometry>
        </mxCell>
        <mxCell id="p17t_6VX3r1sdSGeTsCf-4" value="" style="endArrow=none;html=1;rounded=0;exitX=-0.01;exitY=0.9;exitDx=0;exitDy=0;exitPerimeter=0;" parent="PJwwnjKNIrOmF94pEZzt-1" source="RsmHLLd07lTIPKuzx6u--19" edge="1">
          <mxGeometry width="50" height="50" relative="1" as="geometry">
            <mxPoint x="1360" y="760" as="sourcePoint" />
            <mxPoint x="830" y="730" as="targetPoint" />
            <Array as="points">
              <mxPoint x="1160" y="730" />
            </Array>
          </mxGeometry>
        </mxCell>
        <mxCell id="p17t_6VX3r1sdSGeTsCf-5" value="" style="endArrow=none;html=1;rounded=0;" parent="PJwwnjKNIrOmF94pEZzt-1" edge="1">
          <mxGeometry width="50" height="50" relative="1" as="geometry">
            <mxPoint x="20" y="730" as="sourcePoint" />
            <mxPoint x="830" y="730" as="targetPoint" />
          </mxGeometry>
        </mxCell>
        <mxCell id="p17t_6VX3r1sdSGeTsCf-6" value="" style="endArrow=none;html=1;rounded=0;" parent="PJwwnjKNIrOmF94pEZzt-1" edge="1">
          <mxGeometry width="50" height="50" relative="1" as="geometry">
            <mxPoint x="20" y="994" as="sourcePoint" />
            <mxPoint x="20" y="730" as="targetPoint" />
          </mxGeometry>
        </mxCell>
        <mxCell id="p17t_6VX3r1sdSGeTsCf-7" value="" style="endArrow=none;html=1;rounded=0;entryX=-0.002;entryY=0.069;entryDx=0;entryDy=0;entryPerimeter=0;" parent="PJwwnjKNIrOmF94pEZzt-1" target="aV_MLQnCXW4QnTgUyW_h-2" edge="1">
          <mxGeometry width="50" height="50" relative="1" as="geometry">
            <mxPoint x="20" y="994" as="sourcePoint" />
            <mxPoint x="30" y="740" as="targetPoint" />
          </mxGeometry>
        </mxCell>
      </root>
    </mxGraphModel>
  </diagram>
</mxfile>
